<svg id="button-bg-pink-outline" xmlns="http://www.w3.org/2000/svg" width="104" height="44" viewBox="0 0 104 44">
  <path d="M25.39,42h-2.9a10,10,0,0,1-3.07-.49L12.3,39.18a10,10,0,0,1-5-3.63L3.9,30.8A10,10,0,0,1,2,24.93V19.07A10,10,0,0,1,3.9,13.2L7.32,8.45a10,10,0,0,1,5-3.63l7.12-2.33A10,10,0,0,1,22.49,2h59a10,10,0,0,1,3.07.49L91.7,4.82a10,10,0,0,1,5,3.63l3.42,4.75a10,10,0,0,1,1.9,5.87v5.86a10,10,0,0,1-1.9,5.87l-3.42,4.75a10,10,0,0,1-5,3.63l-7.12,2.33a10,10,0,0,1-3.07.49H25.39Z" style="fill: #FFFFFF;stroke: #FFC9FD;stroke-linejoin: round;stroke-width: 1.25px"/>
</svg>
