<svg width="378" height="373" viewBox="0 0 378 373" fill="none" xmlns="http://www.w3.org/2000/svg">
<path d="M185.937 7.9174C191.56 6.0755 197.652 6.27363 203.143 8.47701L304.608 49.189C310.099 51.3923 314.639 55.4601 317.429 60.6777L368.986 157.085C371.777 162.303 372.64 168.337 371.423 174.127L348.949 281.12C347.733 286.91 344.515 292.087 339.861 295.741L253.871 363.256C249.217 366.91 243.425 368.808 237.511 368.615L128.241 365.062C122.327 364.869 116.67 362.599 112.264 358.651L30.8427 285.691C26.4361 281.742 23.5616 276.367 22.7241 270.51L7.24937 162.283C6.41186 156.426 7.66487 150.461 10.7883 145.435L68.5009 52.5818C71.6244 47.5565 76.4186 43.7923 82.0415 41.9504L185.937 7.9174Z" fill="black"/>
</svg>
