<?xml version="1.0" encoding="utf-8"?>
<!-- Generator: Adobe Illustrator 25.4.1, SVG Export Plug-In . SVG Version: 6.00 Build 0)  -->
<svg version="1.1" id="synthesis-logo" xmlns="http://www.w3.org/2000/svg" xmlns:xlink="http://www.w3.org/1999/xlink" x="0px"
	 y="0px" viewBox="0 0 140.2 174" style="enable-background:new 0 0 140.2 174;" xml:space="preserve">
<style type="text/css">
	.st0{clip-path:url(#SVGID_00000006703295336751889320000007358955670016883628_);}
	.st1{fill:url(#logo-fill_00000003819059979472982250000008138515617318256559_);}
</style>
<g>
	<defs>
		<path id="SVGID_1_" d="M36,122.5l-5.3,13.9c-6.7,17.7-11.3,17.8-14.7,17.8c-3.8,0-6.6-2.3-6.8-5.4c-0.1-1.6-0.3-5.9,10.8-8.7
			c2.8-0.7,3.6-2.2,2.3-5.6l-3.3-8.4c-2.3-5.8-5.9-7.4-10.1-7.4c-3.8,0-4.8,1.9-4.8,3.4c0,1.4,0.6,2.8,5.3,3.5
			c5.1,0.7,8.9,1.9,8.9,6.7c0,3.7-3.1,7.2-9.2,7.2s-8.9-3.7-9.2-8l3.4-0.8c0.1,2.4,1.5,5.9,5.9,5.9c4.5,0,5.8-2.3,5.8-4.1
			c0-2-1.3-3.2-5.8-3.7c-5.4-0.7-8.4-2.5-8.4-6.5c0-3.6,3.2-6.5,8.3-6.5c5.2,0,10,2.1,12.8,9.1l2.7,7c2.1,5.4,2.1,8.8-3.2,10.3
			c-8.8,2.6-9.1,4.4-9,6.4c0.1,1.5,1.7,2.5,3.6,2.6c3.8,0.1,6.6-2.4,9.7-9.7c1.9-4.4,4.3-11,6.9-19.2L36,122.5z M52.4,129.3v10h-3.2
			V130c0-3.9-1.7-5-3.9-5c-2.4,0-5.1,2.5-5.1,6.5v7.8h-3.2v-16.8h3.2v1.1c0,0.8-0.1,1.5-0.4,2.2c-0.1,0.3-0.2,0.6,0,0.7
			c0.3,0.1,0.3-0.2,0.4-0.3c0.7-1.6,2.8-4,5.8-4C50,122.2,52.4,124.4,52.4,129.3z M60,125.2v8.8c0,1.9,0.4,2.5,2.2,2.5h2.5v2.7H62
			c-3.5,0-5.1-1.3-5.1-4.9v-9.1h-3.2v-2.7h3.2v-4.8H60v4.7h4.7v2.7L60,125.2z M82.9,129.3v10h-3.2V130c0-3.9-1.7-5-3.9-5
			c-2.4,0-5.1,2.5-5.1,6.5v7.8h-3.2v-23.4h3.2v7.7c0,0.8-0.1,1.5-0.4,2.2c-0.1,0.3-0.2,0.6,0,0.7c0.3,0.1,0.3-0.2,0.4-0.3
			c0.7-1.6,2.8-4,5.8-4C80.5,122.2,82.8,124.4,82.9,129.3L82.9,129.3z M100.7,131.8H88.1c0.2,2.7,2.1,4.9,5.1,4.9
			c2.3,0,3.6-1.4,4.3-3.3l3,0.8c-0.8,2.8-3.2,5.4-7.3,5.4c-5.3,0-8.2-3.9-8.2-8.7c0-5.1,3.3-8.7,8.1-8.7c3.7,0,7.7,2.5,7.7,8.4
			C100.7,131.1,100.7,131.4,100.7,131.8L100.7,131.8z M97.6,129.2c-0.2-2.5-1.8-4.2-4.3-4.2c-3.2,0-4.5,1.9-5,4.2H97.6z
			 M105.3,133.2c0.1,1.3,1.2,3.6,4.5,3.6s4.1-1.3,4.1-2.4c0-1.5-1.4-2-5.3-2.4c-4.4-0.5-5.8-2.5-5.8-4.7c0-2.5,2.3-5.2,6.9-5.2
			c4.2,0,6.4,2.7,6.8,5.1l-2.9,0.8c-0.2-1.1-1-3.1-3.9-3.1c-2.7,0-3.6,1.1-3.6,2.2c0,1.1,0.6,1.8,4.3,2.2c4.5,0.5,6.7,1.8,6.7,4.6
			c0,3.4-2.8,5.6-7.4,5.6c-4.6,0-7-2.7-7.3-5.6L105.3,133.2z M121.2,115.7l1.1,0.4c0.1,0,0.1,0.1,0.2,0.2l0.4,1.1c0,0.1,0,0.2,0,0.3
			l-0.4,1.1c0,0,0,0.1-0.1,0.1c0,0-0.1,0.1-0.1,0.1l-1.1,0.4c-0.1,0-0.2,0-0.3,0l-1.1-0.4c-0.1,0-0.1-0.1-0.2-0.2l-0.4-1.1
			c0-0.1,0-0.2,0-0.3l0.4-1.1c0-0.1,0.1-0.1,0.2-0.2l1-0.4C120.9,115.7,121,115.7,121.2,115.7L121.2,115.7z M119.4,122.5h3.2v16.8
			h-3.2V122.5z M127.9,133.2c0.1,1.3,1.2,3.6,4.5,3.6c3.3,0,4.1-1.3,4.1-2.4c0-1.5-1.4-2-5.3-2.4c-4.4-0.5-5.8-2.5-5.8-4.7
			c0-2.5,2.3-5.2,6.9-5.2c4.2,0,6.4,2.7,6.8,5.1l-2.9,0.8c-0.2-1.1-1-3.1-3.9-3.1c-2.7,0-3.6,1.1-3.6,2.2c0,1.1,0.6,1.8,4.3,2.2
			c4.5,0.5,6.8,1.8,6.8,4.6c0,3.4-2.8,5.6-7.4,5.6s-7-2.6-7.3-5.6L127.9,133.2z M48,144.2c5.1,0,8.1,2.6,9.4,5.4l-3,1.4
			c-0.5-1.2-1.4-2.2-2.6-2.9c-1.1-0.7-2.4-1-3.8-1c-5,0-7.9,4-7.9,8.9c0,5,2.9,8.9,7.3,8.9c5.3,0,6.5-4,8.4-7.5c2.7-5,5.7-7,10.9-7
			c3.8,0,7.3,1.3,7.3,7.5v9.6h-3.2V166c0-0.7,0.2-1.3,0.4-2c0.1-0.3,0.2-0.5,0-0.7c-0.2-0.1-0.3,0.2-0.4,0.3
			c-0.5,1.3-1.3,2.3-2.4,3.1c-1.1,0.7-2.4,1.1-3.8,1.1c-3.2,0-5.8-2.1-5.8-5c0-3.8,2.8-5,6-5.3c3-0.2,6.1,0.1,6-1.6
			c0-1.4-0.8-2.7-4.3-2.7c-3.5,0-6.1,1.2-8.5,5.6c-1.5,2.8-3,8.9-10.7,8.9c-6.8,0-10.6-5.3-10.6-11.8
			C36.9,149.5,40.9,144.2,48,144.2z M66,165c2.6-0.3,5.1-2.2,5.1-6.4c-1,1.2-3.3,1.3-5.9,1.6c-2,0.3-3.1,1-3.1,2.6
			C62.1,164.1,63.2,165.4,66,165z M80.3,152.1c0,0.6-0.1,1.2-0.3,1.8c-0.1,0.3-0.3,0.6,0,0.7c0.3,0.1,0.4-0.2,0.4-0.3
			c0.5-1.1,1.3-2.1,2.3-2.7c1-0.7,2.2-1,3.4-1c4.4,0,7.4,3.7,7.4,8.7c0,5-3.1,8.7-7.4,8.7c-1.2,0-2.4-0.4-3.4-1.1
			c-1-0.7-1.8-1.7-2.2-2.8c0-0.1-0.1-0.4-0.3-0.3c-0.3,0.1-0.2,0.4-0.1,0.7c0.2,0.6,0.3,1.2,0.3,1.8v7.7h-3.2v-23.1h3.2V152.1z
			 M90.3,159.2c0-3.1-1.6-5.8-4.9-5.8c-3,0-5.1,2.7-5.1,5.8c0,3.1,2.1,5.8,5.1,5.8C88.6,165,90.3,162.3,90.3,159.2L90.3,159.2z
			 M97.6,143.9l1.3,0.8c0.1,0,0.1,0.1,0.1,0.1c0,0.1,0.1,0.1,0.1,0.2v1.5c0,0.1,0,0.1-0.1,0.2c0,0.1-0.1,0.1-0.1,0.1l-1.3,0.8
			c-0.1,0-0.1,0-0.2,0c-0.1,0-0.1,0-0.2,0l-1.3-0.8c-0.1,0-0.1-0.1-0.1-0.1c0-0.1-0.1-0.1-0.1-0.2V145c0-0.1,0-0.1,0.1-0.2
			c0-0.1,0.1-0.1,0.1-0.1l1.3-0.8c0.1,0,0.1,0,0.2,0S97.5,143.9,97.6,143.9z M95.8,150.8H99v16.8h-3.2V150.8z M107.3,153.6v8.8
			c0,1.9,0.4,2.5,2.2,2.5h2.5v2.7h-2.7c-3.5,0-5.1-1.3-5.1-4.9v-9.1H101v-2.7h3.2v-4.8h3.2v4.7h4.7v2.7L107.3,153.6z M120,157.7
			c3-0.2,6.1,0.1,6-1.6c0-1.4-0.8-2.7-4.3-2.7c-3,0-3.7,1.6-4.2,3.1l-2.9-0.8c1-3.5,3.4-5.1,7.3-5.1c3.8,0,7.3,1.3,7.3,7.5v9.6H126
			V166c0-0.7,0.1-1.3,0.4-2c0.1-0.3,0.2-0.5,0-0.7c-0.2-0.1-0.3,0.2-0.4,0.3c-0.5,1.3-1.3,2.4-2.4,3.1c-1.1,0.7-2.5,1.1-3.8,1.1
			c-3.2,0-5.8-2.1-5.8-5C113.9,159.1,116.7,157.9,120,157.7z M120.1,160.2c-2,0.3-3.1,1-3.1,2.6c0,1.3,1.1,2.6,3.8,2.2
			c2.6-0.3,5.1-2.2,5.1-6.4C125,159.8,122.7,159.8,120.1,160.2z M135.3,162.4c0,1.9,0.4,2.5,2.2,2.5h2v2.7h-2.2
			c-3.5,0-5.1-1.3-5.1-4.9V144h3.2V162.4z"/>
	</defs>
	<clipPath id="SVGID_00000049213315544959936420000012710110105668782005_">
		<use xlink:href="#SVGID_1_"  style="overflow:visible;"/>
	</clipPath>
	<g style="clip-path:url(#SVGID_00000049213315544959936420000012710110105668782005_);">
		
			<linearGradient id="logo-fill_00000139260974342982020200000017680955859549608838_" gradientUnits="userSpaceOnUse" x1="70.09" y1="1780.01" x2="70.09" y2="1946.29" gradientTransform="matrix(1 0 0 1 0 -1775.59)">
			<stop  offset="0.32" style="stop-color:#FFFFFF"/>
			<stop  offset="0.68" style="stop-color:#120A59"/>
		</linearGradient>
		
			<rect id="logo-fill" style="fill:url(#logo-fill_00000139260974342982020200000017680955859549608838_);" width="140.2" height="174"/>
	</g>
</g>
</svg>
