<svg width="600" height="249" viewBox="0 0 600 249" fill="none" xmlns="http://www.w3.org/2000/svg">
<path d="M139.593 29.2696C128.195 64.3086 118.063 92.4525 109.902 111.309C96.5333 142.408 84.7129 153.384 68.3895 152.821C60.5092 152.54 53.7547 148.037 53.1918 141.704C52.4882 133.402 53.8954 125.521 91.6082 114.405C114.405 107.65 114.264 93.4375 105.258 70.2188L93.5782 40.2457C81.8985 10.1318 61.3535 1.12576 38.9792 1.12576C17.1677 1.12576 3.37726 13.509 3.37726 28.9881C3.37726 45.8744 16.1827 53.8954 39.2606 56.7098C58.6799 59.102 64.1679 63.8865 64.1679 72.6111C64.1679 80.0692 58.8206 90.0603 39.4014 90.0603C20.6857 90.0603 14.9162 74.8626 14.3534 64.7308L0 68.1081C1.40719 86.4016 13.3683 102.444 39.4014 102.444C65.4344 102.444 78.8027 87.8087 78.8027 71.7668C78.8027 50.9403 62.4793 45.8744 40.6678 42.9193C20.545 40.2457 17.8713 34.1948 17.8713 28.1438C17.8713 21.6707 22.2336 13.509 38.557 13.509C56.5691 13.509 72.0482 20.4043 81.7578 45.0301L95.8297 80.9135C101.459 95.2669 97.9405 101.881 85.8387 104.836C38.2756 116.515 39.2606 135.231 39.6828 141.986C40.5271 155.072 52.4882 164.923 68.9524 164.923C83.4465 164.923 103.006 164.219 131.713 88.6531L154.228 29.2696H139.593Z" fill="#120A59"/>
<path d="M197.246 28.1438C184.3 28.1438 175.154 38.2756 172.339 45.3116C172.058 45.8744 171.636 46.8595 170.791 46.578C169.665 46.2966 170.228 44.8894 170.651 43.6229C171.917 39.9642 172.198 37.0091 172.198 34.054V29.2696H158.689V101.318H172.198V67.6859C172.198 50.5182 183.456 39.9642 193.869 39.9642C203.297 39.9642 210.474 44.608 210.474 61.3535V101.318H223.983V58.5392C223.983 37.4313 213.851 28.1438 197.246 28.1438Z" fill="#120A59"/>
<path d="M276.859 41.09V29.2696H256.596V9.00603H243.087V29.2696H229.578V41.09H243.087V80.2099C243.087 95.8297 250.123 101.318 265.039 101.318H276.859V89.4974H266.165C258.284 89.4974 256.596 86.9644 256.596 78.8027V41.09H276.859Z" fill="#120A59"/>
<path d="M327.796 28.1438C314.85 28.1438 305.704 38.2756 302.889 45.3116C302.608 45.8744 302.186 46.8595 301.341 46.578C300.215 46.2966 300.778 44.8894 301.201 43.6229C302.467 39.9642 302.748 37.0091 302.748 34.054V0H289.239V101.318H302.748V67.6859C302.748 50.5182 314.006 39.9642 324.419 39.9642C333.847 39.9642 341.024 44.608 341.024 61.3535V101.318H354.533V58.5392C354.533 37.4313 344.401 28.1438 327.796 28.1438Z" fill="#120A59"/>
<path d="M431.024 64.3087C431.024 38.6978 414.278 28.1438 398.236 28.1438C377.551 28.1438 363.479 43.6229 363.479 65.2937C363.479 85.698 375.862 102.444 398.518 102.444C416.108 102.444 426.521 91.3267 429.757 79.2249L417.093 75.9883C414.419 84.1501 408.509 90.0603 398.799 90.0603C385.712 90.0603 377.832 80.7728 376.847 69.2338H430.602C430.883 67.6859 431.024 66.2787 431.024 64.3087ZM377.551 57.9763C379.521 48.2667 385.431 39.9642 398.94 39.9642C409.916 39.9642 416.67 47.4224 417.515 57.9763H377.551Z" fill="#120A59"/>
<path d="M437.823 78.5213C439.09 91.0453 449.644 102.444 469.204 102.444C488.904 102.444 500.866 93.0154 500.866 78.3806C500.866 66.5602 491.297 60.9314 471.877 58.8206C456.258 57.132 453.584 54.0362 453.584 49.3924C453.584 44.608 457.806 39.9642 469.204 39.9642C481.869 39.9642 485.387 48.5481 486.09 53.1918L498.614 49.8146C497.066 39.6828 487.779 28.1438 469.626 28.1438C449.925 28.1438 440.075 39.5421 440.075 50.3775C440.075 59.8056 445.985 68.3895 464.841 70.3596C481.306 72.0482 487.357 74.0183 487.357 80.4914C487.357 85.1351 483.557 90.6231 469.767 90.6231C455.695 90.6231 450.77 80.6321 450.347 75.144L437.823 78.5213Z" fill="#120A59"/>
<path d="M517.229 0.140717L512.726 1.97007C512.444 2.11079 512.022 2.53295 511.881 2.81438L510.052 7.31739C509.911 7.59884 509.911 8.16171 510.052 8.44315L511.881 13.0869C512.022 13.3683 512.444 13.7905 512.726 13.9312L517.229 15.6198C517.51 15.7605 518.073 15.7605 518.354 15.6198L522.998 13.9312C523.42 13.7905 523.702 13.509 523.842 13.0869L525.531 8.44315C525.672 8.16171 525.672 7.59884 525.531 7.31739L523.842 2.81438C523.702 2.53295 523.279 2.11079 522.998 1.97007L518.354 0.140717C518.073 0 517.51 0 517.229 0.140717ZM511.037 101.318H524.546V29.2696H511.037V101.318Z" fill="#120A59"/>
<path d="M534.705 78.5213C535.972 91.0453 546.526 102.444 566.086 102.444C585.786 102.444 597.747 93.0154 597.747 78.3806C597.747 66.5602 588.178 60.9314 568.759 58.8206C553.139 57.132 550.466 54.0362 550.466 49.3924C550.466 44.608 554.687 39.9642 566.086 39.9642C578.75 39.9642 582.268 48.5481 582.972 53.1918L595.496 49.8146C593.948 39.6828 584.661 28.1438 566.508 28.1438C546.807 28.1438 536.957 39.5421 536.957 50.3775C536.957 59.8056 542.867 68.3895 561.723 70.3596C578.187 72.0482 584.238 74.0183 584.238 80.4914C584.238 85.1351 580.439 90.6231 566.648 90.6231C552.577 90.6231 547.651 80.6321 547.229 75.144L534.705 78.5213Z" fill="#120A59"/>
<path d="M160.783 171.693C160.783 199.696 176.965 222.352 206.376 222.352C239.304 222.352 245.496 196.038 252.109 184.076C262.523 165.22 273.921 159.873 288.837 159.873C303.613 159.873 306.99 165.783 307.131 171.693C307.271 179.151 294.184 177.603 281.238 178.588C267.448 179.573 255.346 184.639 255.346 201.104C255.346 213.346 266.463 222.352 280.112 222.352C293.199 222.352 302.628 215.175 306.849 204.481C307.131 203.777 307.412 202.651 308.538 203.074C309.523 203.496 308.96 204.621 308.678 205.888C307.834 209.687 307.131 211.657 307.131 214.331V221.226H320.64V180.136C320.64 153.681 305.583 148.052 289.4 148.052C267.166 148.052 254.502 156.496 242.822 177.885C234.66 192.801 229.454 209.969 206.798 209.969C187.66 209.969 175.417 192.942 175.417 171.693C175.417 150.445 187.66 133.418 209.049 133.418C223.262 133.418 231.846 141.298 236.067 150.163L249.014 143.972C243.244 132.151 230.579 121.034 208.627 121.034C178.091 121.034 160.783 143.69 160.783 171.693ZM268.855 200.4C268.855 193.786 273.358 190.69 282.083 189.424C293.059 187.876 302.768 187.735 307.131 182.388C306.99 200.541 296.295 208.562 285.319 209.969C273.639 211.517 268.855 206.169 268.855 200.4Z" fill="#120A59"/>
<path d="M347.685 149.178H334.176V248.244H347.685V215.175C347.685 212.642 347.263 210.672 346.278 207.577C345.856 206.451 345.152 205.184 346.559 204.762C347.404 204.481 347.826 205.607 347.967 206.029C352.329 215.738 360.913 222.352 372.17 222.352C390.886 222.352 403.973 206.592 403.973 185.202C403.973 163.813 390.886 148.052 372.17 148.052C360.631 148.052 352.188 154.807 347.967 164.094C347.826 164.517 347.404 165.924 346.278 165.502C345.011 165.079 345.856 163.672 346.278 162.546C347.263 159.591 347.685 157.481 347.685 154.807V149.178ZM369.356 209.969C356.55 209.969 347.685 198.571 347.685 185.202C347.685 171.834 356.55 160.436 369.356 160.436C383.428 160.436 390.464 171.834 390.464 185.202C390.464 198.571 383.428 209.969 369.356 209.969Z" fill="#120A59"/>
<path d="M420.347 120.049L415.844 121.879C415.562 122.019 415.14 122.442 414.999 122.723L413.17 127.226C413.029 127.507 413.029 128.07 413.17 128.352L414.999 132.995C415.14 133.277 415.562 133.699 415.844 133.84L420.347 135.528C420.628 135.669 421.191 135.669 421.473 135.528L426.116 133.84C426.538 133.699 426.82 133.418 426.961 132.995L428.649 128.352C428.79 128.07 428.79 127.507 428.649 127.226L426.961 122.723C426.82 122.442 426.398 122.019 426.116 121.879L421.473 120.049C421.191 119.909 420.628 119.909 420.347 120.049ZM414.155 221.226H427.664V149.178H414.155V221.226Z" fill="#120A59"/>
<path d="M481.754 160.999V149.178H461.491V128.915H447.982V149.178H434.473V160.999H447.982V200.118C447.982 215.738 455.018 221.226 469.934 221.226H481.754V209.406H471.06C463.179 209.406 461.491 206.873 461.491 198.711V160.999H481.754Z" fill="#120A59"/>
<path d="M488.532 201.104C488.532 213.346 499.649 222.352 513.298 222.352C526.385 222.352 535.954 215.175 540.035 204.481C540.316 203.777 540.598 202.651 541.724 203.074C542.709 203.496 542.146 204.621 541.864 205.888C540.598 209.547 540.316 211.657 540.316 214.331V221.226H553.825V180.136C553.825 153.681 538.768 148.052 522.586 148.052C505.981 148.052 495.708 154.948 491.346 169.723L504.011 173.1C506.122 166.768 509.358 159.873 522.023 159.873C536.798 159.873 540.176 165.783 540.316 171.693C540.457 179.151 527.37 177.603 514.424 178.588C500.634 179.573 488.532 184.639 488.532 201.104ZM540.316 182.388C540.176 200.541 529.481 208.562 518.505 209.969C506.825 211.517 502.041 206.169 502.041 200.4C502.041 193.786 506.544 190.69 515.268 189.424C526.245 187.876 535.954 187.735 540.316 182.388Z" fill="#120A59"/>
<path d="M581.988 119.909H568.479V200.118C568.479 215.738 575.515 221.226 590.431 221.226H600V209.406H591.557C583.677 209.406 581.988 206.873 581.988 198.711V119.909Z" fill="#120A59"/>
</svg>
