<svg width="40" height="30" viewBox="0 0 40 30" fill="none" xmlns="http://www.w3.org/2000/svg">
<path d="M0 16.3636H33.4659C34.5454 16.3636 35 16.25 35.9659 16.0227C36.4205 15.9091 36.5909 16.0227 36.6477 16.3068C36.7045 16.5341 36.3636 16.7045 36.0227 16.8182C35.4545 16.9886 34.8295 17.2727 34.6023 17.4432L24.0909 26.3636V30L40 16.3636V13.6364L24.0909 0V3.63636L34.6023 12.5568C34.8295 12.7273 35.4545 13.0114 36.0227 13.1818C36.3636 13.2955 36.7045 13.4659 36.6477 13.6932C36.5909 13.9773 36.4205 14.0909 35.9659 13.9773C35 13.75 34.5454 13.6364 33.4659 13.6364H0V16.3636Z" fill="#120A59"/>
</svg>
