<svg width="61" height="60" viewBox="0 0 61 60" fill="none" xmlns="http://www.w3.org/2000/svg">
<path fill-rule="evenodd" clip-rule="evenodd" d="M36.2224 6.43669C37.0929 6.43254 37.9371 6.73292 38.6066 7.28508L42.0286 10.1072C42.6981 10.6594 43.1502 11.428 43.3055 12.2781L44.0992 16.6231C44.1115 16.6907 44.1219 16.7585 44.1304 16.8265L40.1789 17.3355C39.0614 17.4794 38.0708 18.1206 37.4875 19.0774L34.6417 23.7454C34.1681 24.5222 34.0048 25.4385 34.1689 26.3172C33.7153 26.3285 33.2601 26.257 32.8266 26.1028L28.6384 24.6124C27.8189 24.3208 27.1292 23.752 26.6904 23.0059L24.4473 19.1924C24.0084 18.4462 23.8484 17.5705 23.9955 16.7189L24.747 12.3666C24.894 11.515 25.3387 10.7421 26.0028 10.1836L29.3974 7.32899C30.0615 6.77047 30.9027 6.46205 31.7732 6.4579L36.2224 6.43669ZM34.1689 26.3172C34.2069 26.5209 34.2625 26.7225 34.3359 26.9198L36.2388 32.0385C36.6288 33.0877 37.4791 33.9035 38.5488 34.2551L43.7675 35.9699C44.8372 36.3214 46.01 36.1703 46.9538 35.5595L51.5585 32.5792C52.5024 31.9683 53.1146 30.9641 53.2218 29.8508L53.7451 24.4196C53.8524 23.3064 53.443 22.2052 52.6329 21.4279L48.6807 17.6355C47.8706 16.8582 46.7479 16.4893 45.6304 16.6332L44.1304 16.8265C44.2286 17.612 44.0686 18.4101 43.6713 19.1007L41.4653 22.9354C41.0336 23.6857 40.3494 24.2611 39.5329 24.5605L35.3593 26.0907C34.9748 26.2317 34.5725 26.3072 34.1689 26.3172ZM22.7143 34.5512C23.3461 34.094 24.1076 33.847 24.8895 33.8458L26.1975 33.8436L26.0206 35.6796C25.9134 36.7928 25.3012 37.7971 24.3573 38.4079L19.7526 41.3882C18.9549 41.9045 17.9936 42.0924 17.0693 41.9259L18.1006 38.7581C18.341 38.0196 18.8108 37.3757 19.4426 36.9185L22.7143 34.5512ZM17.0693 41.9259L16.8558 42.5819C16.6153 43.3204 16.6167 44.1154 16.8595 44.8531L18.117 48.6728C18.3599 49.4104 18.8318 50.0529 19.4652 50.508L22.7447 52.8646C23.378 53.3197 24.1403 53.5642 24.9222 53.5629L28.9711 53.5563C29.753 53.555 30.5145 53.3081 31.1463 52.8509L34.418 50.4836C35.0498 50.0264 35.5196 49.3824 35.76 48.644L37.0049 44.8202C37.2453 44.0817 37.244 43.2867 37.0011 42.549L35.7436 38.7293C35.5007 37.9916 35.0288 37.3492 34.3955 36.8941L31.1159 34.5374C30.4826 34.0823 29.7203 33.8379 28.9384 33.8392L26.1975 33.8436L26.5439 30.2484C26.6512 29.1351 26.2418 28.034 25.4317 27.2566L21.4795 23.4643C20.6694 22.687 19.5467 22.318 18.4293 22.462L12.9777 23.1642C11.8602 23.3082 10.8696 23.9493 10.2863 24.9062L7.44052 29.5742C6.85719 30.531 6.74463 31.6994 7.13468 32.7486L9.0376 37.8673C9.42765 38.9165 10.2779 39.7323 11.3476 40.0838L16.5663 41.7987C16.7319 41.8531 16.9 41.8955 17.0693 41.9259Z" fill="#120a59"/>
</svg>
