<svg width="61" height="60" viewBox="0 0 61 60" fill="none" xmlns="http://www.w3.org/2000/svg">
<path fill-rule="evenodd" clip-rule="evenodd" d="M18.2527 7.21507C16.0287 5.54596 12.7759 6.69792 12.1748 9.36757L6.67967 33.7722C6.36271 35.1798 6.90857 36.6391 8.08128 37.5192L28.4128 52.7773C30.6369 54.4464 33.8896 53.2944 34.4907 50.6248L34.6204 50.049C34.8143 49.9659 35.0045 49.8658 35.1892 49.7479L52.7032 38.562C54.1194 37.6574 54.7563 35.9548 54.269 34.3761L48.242 14.8531C47.5053 12.4669 44.6153 11.4433 42.4745 12.8106L33.4171 18.5954L18.2527 7.21507ZM33.4171 18.5954L24.9605 23.9965C23.5443 24.901 22.9074 26.6037 23.3947 28.1824L29.4217 47.7053C30.0948 49.8858 32.5659 50.9284 34.6204 50.049L39.9858 26.2202C40.3028 24.8125 39.7569 23.3533 38.5842 22.4732L33.4171 18.5954Z" fill="white"/>
</svg>
