<svg width="61" height="60" viewBox="0 0 61 60" fill="none" xmlns="http://www.w3.org/2000/svg">
<path d="M47.4445 36.3454L40.9907 36.2642L41.0057 40.4964L47.4398 40.5087C48.587 40.5106 49.7122 40.8181 50.6957 41.3986C51.4312 41.8321 52.4081 41.8511 53.0137 41.2552L53.8102 40.4714C53.9584 40.3375 54.0753 40.1736 54.1526 39.9909C54.23 39.8083 54.266 39.6112 54.2582 39.4135C54.2504 39.2158 54.1989 39.0221 54.1074 38.8459C54.0158 38.6697 53.8864 38.5151 53.728 38.393C51.911 37.0657 49.7081 36.3479 47.4445 36.3454Z" fill="white"/>
<path d="M36.7124 46.7185C36.7193 48.9437 37.528 51.1081 38.8775 52.8945C39.0023 53.0499 39.16 53.1767 39.3396 53.2663C39.5191 53.3559 39.7163 53.4061 39.9176 53.4134C40.1188 53.4207 40.3192 53.3849 40.505 53.3086C40.6908 53.2323 40.8576 53.1172 40.9937 52.9713L41.7902 52.1875C42.3958 51.5915 42.3756 50.6311 41.9209 49.8997C41.3302 48.9338 41.0172 47.8285 41.015 46.7015L41.0057 40.4964L36.6986 40.4876L36.7124 46.7185Z" fill="white"/>
<path d="M23.8906 13.4199C23.8817 11.1963 23.1466 9.03434 21.7936 7.25252C21.6693 7.09694 21.512 6.96982 21.3327 6.87997C21.1534 6.79012 20.9563 6.73969 20.7552 6.73218C20.5541 6.72468 20.3537 6.76027 20.168 6.83649C19.9823 6.91271 19.8156 7.02774 19.6797 7.17359L18.8832 7.95739C18.2776 8.55334 18.2978 9.51375 18.7503 10.2474C19.3402 11.2135 19.6532 12.3186 19.6562 13.4455L19.6678 19.6527L23.9001 19.6594L23.8906 13.4199Z" fill="white"/>
<path d="M37.7947 22.6988C35.8172 20.7599 33.14 19.6687 30.3472 19.6632L23.9001 19.6594L23.926 23.8099L30.3491 23.833C32.0232 23.8333 33.6287 24.487 34.8129 25.6503C35.9972 26.8136 36.6634 28.3915 36.6653 30.0374L36.6835 36.251L40.9907 36.2642L40.9747 30.0312C40.9666 27.2854 39.7816 24.6542 37.8078 22.7117L37.7903 22.6945L37.7947 22.6988Z" fill="white"/>
<path d="M13.2189 23.7924L19.6815 23.8112L19.6678 19.6527L13.2346 19.6399C12.0948 19.6362 10.977 19.3311 9.99851 18.7565C9.24756 18.3165 8.2707 18.2975 7.6651 18.8935L6.86861 19.6773C6.72035 19.8112 6.60345 19.9752 6.52598 20.158C6.44851 20.3407 6.41233 20.5378 6.41994 20.7357C6.42754 20.9335 6.47875 21.1274 6.57002 21.3038C6.6613 21.4803 6.79046 21.6352 6.94858 21.7578C8.76471 23.0757 10.9617 23.7886 13.2189 23.7924Z" fill="white"/>
<path d="M25.7836 34.4234C24.6027 33.2544 23.9406 31.6733 23.9421 30.0257L23.926 23.8099L19.6916 23.8009L19.6988 30.0469C19.7082 32.7882 20.8169 35.4152 22.7841 37.3578L22.8017 37.375C24.78 39.3128 27.4567 40.475 30.2491 40.4818L36.6986 40.4876L36.6879 36.2553L30.2494 36.2387C28.5754 36.237 26.9701 35.5845 25.7836 34.4234Z" fill="white"/>
</svg>
