<svg width="60" height="60" viewBox="0 0 60 60" fill="none" xmlns="http://www.w3.org/2000/svg">
<path fill-rule="evenodd" clip-rule="evenodd" d="M32.0436 6.77823C30.944 6.32278 29.7086 6.32278 28.6091 6.77823L15.1205 12.3654C14.0209 12.8208 13.1474 13.6944 12.6919 14.7939L7.10477 28.2825C6.64932 29.3821 6.64932 30.6175 7.10477 31.717L12.6919 45.2056C13.1474 46.3052 14.0209 47.1787 15.1205 47.6342L28.6091 53.2213C29.7086 53.6768 30.944 53.6768 32.0436 53.2213L45.5322 47.6342C46.6317 47.1787 47.5053 46.3052 47.9607 45.2056L53.5479 31.717C54.0033 30.6175 54.0033 29.3821 53.5479 28.2825L47.9607 14.7939C47.5053 13.6944 46.6317 12.8208 45.5322 12.3654L32.0436 6.77823ZM26.1278 25.8624C25.0338 25.4092 23.8045 25.4092 22.7105 25.8624L19.8354 27.0533C18.7414 27.5064 17.8722 28.3756 17.4191 29.4696L16.2282 32.3448C15.775 33.4388 15.775 34.668 16.2282 35.762L17.4191 38.6371C17.8722 39.7311 18.7414 40.6003 19.8354 41.0534L22.7105 42.2444C23.8045 42.6975 25.0338 42.6975 26.1278 42.2444L29.0029 41.0534C30.0969 40.6003 30.9661 39.7311 31.4192 38.6371L32.6101 35.762C33.0633 34.668 33.0633 33.4388 32.6101 32.3448L31.4192 29.4696C30.9661 28.3756 30.0969 27.5064 29.0029 27.0533L26.1278 25.8624Z" fill="white"/>
</svg>
