<svg width="61" height="60" viewBox="0 0 61 60" fill="none" xmlns="http://www.w3.org/2000/svg">
<path fill-rule="evenodd" clip-rule="evenodd" d="M26.5889 6.43665C25.5226 6.43665 24.6581 7.2938 24.6581 8.35115V24.7067L8.6416 50.6488C7.85399 51.9245 8.77982 53.5629 10.2883 53.5629H50.8806C52.3981 53.5629 53.3225 51.9069 52.5167 50.6318L36.4627 25.2272V8.35115C36.4627 7.2938 35.5983 6.43665 34.5319 6.43665H26.5889ZM36.4627 25.2272L31.9844 18.1405C31.2231 16.9359 29.4501 16.9451 28.7016 18.1575L24.6581 24.7067V28.0853C24.6581 29.1426 25.5226 29.9998 26.5889 29.9998H34.5319C35.5983 29.9998 36.4627 29.1426 36.4627 28.0853V25.2272Z" fill="white"/>
</svg>
